<?xml version="1.0" encoding="utf-8"?>
<!-- Generator: Adobe Illustrator 16.0.0, SVG Export Plug-In . SVG Version: 6.00 Build 0)  -->
<!DOCTYPE svg PUBLIC "-//W3C//DTD SVG 1.1//EN" "http://www.w3.org/Graphics/SVG/1.1/DTD/svg11.dtd">
<svg version="1.1" id="Layer_1" xmlns="http://www.w3.org/2000/svg" xmlns:xlink="http://www.w3.org/1999/xlink" x="0px" y="0px"
	 width="150px" height="150px" viewBox="0 0 150 150" enable-background="new 0 0 150 150" xml:space="preserve">
<path fill="#FFFFFF" d="M96.832,24.814c-6.354-5.344-15.021-8.007-26.01-8.007c-4.9,0-10.103,0.544-15.587,1.647
	c-5.486,1.096-10.025,2.332-13.603,3.711v15.637h0.772c2.854-1.79,6.746-3.555,11.68-5.289c4.935-1.742,10.15-2.609,15.667-2.609
	c6.18,0,11.223,1.419,15.133,4.256c3.908,2.829,5.862,7.14,5.862,12.909c0,4.39-0.819,8.007-2.459,10.845
	c-1.624,2.829-3.926,5.579-6.888,8.236c-2.46,2.293-5.612,4.57-9.458,6.817c-3.877,2.238-7.455,4.318-10.781,6.21v23.359h13.713
	V85.293c4.193-2.396,8.149-4.871,11.886-7.424c3.734-2.554,7.029-5.28,9.883-8.196c2.916-3.01,5.265-6.479,7.047-10.387
	c1.796-3.901,2.679-8.362,2.679-13.366C106.367,37.187,103.198,30.149,96.832,24.814z M76.104,117.021H60.469v16.172h15.636v-16.172
	H76.104z"/>
</svg>
