<?xml version="1.0" encoding="utf-8"?>
<!-- Generator: Adobe Illustrator 16.0.0, SVG Export Plug-In . SVG Version: 6.00 Build 0)  -->
<!DOCTYPE svg PUBLIC "-//W3C//DTD SVG 1.1//EN" "http://www.w3.org/Graphics/SVG/1.1/DTD/svg11.dtd">
<svg version="1.1" id="Layer_1" xmlns="http://www.w3.org/2000/svg" xmlns:xlink="http://www.w3.org/1999/xlink" x="0px" y="0px"
	 width="150px" height="150px" viewBox="0 0 150 150" enable-background="new 0 0 150 150" xml:space="preserve">
<g>
	<g>
		<path fill-rule="evenodd" clip-rule="evenodd" fill="#FFFFFF" d="M132.082,46.264l-30.107-30.096l-85.995,85.995l30.096,30.108
			l16.58-16.58l-15.345-15.345l1.871-1.878l15.345,15.346l-1.834,1.84l12.113-12.113l-8.854-8.86l0.938-0.927l8.848,8.849
			l-0.933,0.938L99.077,79.27l-0.939,0.934l-8.847-8.855l0.926-0.932l8.86,8.853l11.856-11.856l-1.584,1.577L94.005,53.646
			l1.877-1.871l15.345,15.345l10.25-10.25l-8.86-8.854l0.939-0.933l8.849,8.854l-0.742,0.746L132.082,46.264z M52.376,125.964
			l-0.933,0.939l-8.854-8.86l0.933-0.927L52.376,125.964z M85.524,92.815L65.459,72.75l2.803-2.797l20.066,20.061L85.524,92.815z"/>
	</g>
</g>
</svg>
