<?xml version="1.0" encoding="utf-8"?>
<!-- Generator: Adobe Illustrator 16.0.0, SVG Export Plug-In . SVG Version: 6.00 Build 0)  -->
<!DOCTYPE svg PUBLIC "-//W3C//DTD SVG 1.1//EN" "http://www.w3.org/Graphics/SVG/1.1/DTD/svg11.dtd">
<svg version="1.1" id="Layer_1" xmlns="http://www.w3.org/2000/svg" xmlns:xlink="http://www.w3.org/1999/xlink" x="0px" y="0px"
	 width="150px" height="150px" viewBox="0 0 150 150" enable-background="new 0 0 150 150" xml:space="preserve">
<path fill-rule="evenodd" clip-rule="evenodd" fill="#FFFFFF" d="M108.679,106.808c-3.205,13.019-19.85,25.879-37.299,21.261
	c-15.609-4.141-30.184-24.57-40.194-35.703c-3.627-4.035-11.389-12.595-3.317-16.156c12.43,1.319,13.084,13.861,23.207,15.734
	c22.871-11.91-11.996-46.914-2.902-63.322c1.247-0.146,2.486-0.291,3.733-0.422c9.312,6.713,11.284,31.562,17.819,35.69
	c1.596,0.29,1.576,0,2.902-0.844c2.13-11.791-2.514-34.516,4.142-42.074c1.247,0.146,2.485,0.291,3.732,0.422
	c7.537,4.247-0.151,39.845,6.627,45.055c0.963,0,1.939,0,2.902,0c4.471-10.13,5.83-28.595,13.269-36.126
	c1.239,0.146,2.479,0.278,3.718,0.423c1.519,0.699,1.795,1.015,2.495,2.545c3.586,13.532-12.2,29.742-7.467,40.808
	c0.423,0.132,0.832,0.277,1.254,0.422c4.748-3.93,14.838-25.245,19.467-24.229c0.976,0.435,1.938,0.857,2.901,1.28
	c0.265,15.589-9.337,23.529-13.677,34.423C109.43,92.432,110.564,99.171,108.679,106.808z"/>
</svg>
