<?xml version="1.0" encoding="utf-8"?>
<!-- Generator: Adobe Illustrator 16.0.0, SVG Export Plug-In . SVG Version: 6.00 Build 0)  -->
<!DOCTYPE svg PUBLIC "-//W3C//DTD SVG 1.1//EN" "http://www.w3.org/Graphics/SVG/1.1/DTD/svg11.dtd">
<svg version="1.1" id="Layer_1" xmlns="http://www.w3.org/2000/svg" xmlns:xlink="http://www.w3.org/1999/xlink" x="0px" y="0px"
	 width="150px" height="150px" viewBox="0 0 150 150" enable-background="new 0 0 150 150" xml:space="preserve">
<path fill-rule="evenodd" clip-rule="evenodd" fill="#FFFFFF" d="M124.002,89.438c-17.762,16.759-46.548,16.759-64.31,0l2.475,2.337
	v9.335l-34.643,32.649l-14.848-13.994l34.644-32.65h9.896l2.476,2.323c-17.761-16.744-17.761-43.895,0-60.639
	c17.762-16.744,46.548-16.744,64.31,0S141.764,72.693,124.002,89.438z M116.578,35.796c-13.65-12.881-35.812-12.881-49.462,0
	c-13.665,12.881-13.665,33.763,0,46.645c13.65,12.881,35.812,12.881,49.462,0C130.243,69.559,130.243,48.677,116.578,35.796z
	 M75.557,54.685h34.986v6.599H75.557V54.685z"/>
</svg>
