<?xml version="1.0" encoding="utf-8"?>
<!-- Generator: Adobe Illustrator 16.0.0, SVG Export Plug-In . SVG Version: 6.00 Build 0)  -->
<!DOCTYPE svg PUBLIC "-//W3C//DTD SVG 1.1//EN" "http://www.w3.org/Graphics/SVG/1.1/DTD/svg11.dtd">
<svg version="1.1" id="Layer_1" xmlns="http://www.w3.org/2000/svg" xmlns:xlink="http://www.w3.org/1999/xlink" x="0px" y="0px"
	 width="150px" height="150px" viewBox="0 0 150 150" enable-background="new 0 0 150 150" xml:space="preserve">
<path fill="#FFFFFF" d="M124.348,88.919c-17.889,16.879-46.886,16.879-64.775,0l2.493,2.352v9.403L27.171,133.56l-14.956-14.096
	l34.894-32.886h9.97l2.493,2.341c-17.89-16.867-17.89-44.214,0-61.079c17.89-16.865,46.885-16.865,64.775,0
	C142.238,44.705,142.238,72.052,124.348,88.919z M116.87,34.888c-13.75-12.974-36.071-12.974-49.82,0
	c-13.764,12.975-13.764,34.009,0,46.982c13.749,12.976,36.07,12.976,49.82,0C130.633,68.896,130.633,47.861,116.87,34.888z
	 M96.695,73.852h-7.048V60.56H75.551v-6.646h14.097V40.62h7.048v13.293h14.097v6.646H96.695V73.852z"/>
</svg>
