<?xml version="1.0" encoding="utf-8"?>
<!-- Generator: Adobe Illustrator 16.0.0, SVG Export Plug-In . SVG Version: 6.00 Build 0)  -->
<!DOCTYPE svg PUBLIC "-//W3C//DTD SVG 1.1//EN" "http://www.w3.org/Graphics/SVG/1.1/DTD/svg11.dtd">
<svg version="1.1" id="Layer_1" xmlns="http://www.w3.org/2000/svg" xmlns:xlink="http://www.w3.org/1999/xlink" x="0px" y="0px"
	 width="150px" height="150px" viewBox="0 0 150 150" enable-background="new 0 0 150 150" xml:space="preserve">
<path fill="#FFFFFF" d="M133.362,81.756c-0.946-3.285-2.08-6.783-3.355-10.212c0.43-2.381,0.645-5.005,0.645-7.86
	c0-3.026-0.271-6.297-0.832-9.652c0.474,1.205,0.933,2.437,1.334,3.686c1.691,5.465,2.597,11.288,2.597,17.312
	C133.75,77.295,133.621,79.547,133.362,81.756z M111.719,49.01c0.344-1.563,0.473-3.371,0.388-5.436
	c-0.028-0.531-0.071-1.077-0.159-1.592c0.06,0.014,0.103,0.028,0.159,0.042c8.419,2.41,15.979,10.83,15.979,10.83l0.2,0.086
	c0.203,1.205,0.315,2.381,0.315,3.528c0,3.313-0.358,6.354-1.062,9.123C122.833,55.78,115.104,50.818,111.719,49.01z M122.418,44.09
	c-3.614-2.682-8.49-4.332-11.26-5.12c-1.004-2.754-2.754-5.25-4.892-7.43c0.818,0.171,1.736,0.258,2.74,0.171
	c1.649-0.129,3.856,0,5.923,0.215c4.463,4.145,8.292,8.979,11.304,14.329c0.257,0.602,0.486,1.176,0.702,1.749
	C125.475,46.601,123.911,45.209,122.418,44.09z M94.723,24.354c0.069-1.363,0.1-3.142-0.044-4.719
	c5.093,1.807,9.84,4.303,14.172,7.358c-2.496,0.445-4.404,1.363-5.493,1.995C100.617,26.878,97.576,25.286,94.723,24.354z
	 M81.469,23.279c-0.681-0.948-1.743-2.237-3.379-3.93c-1.131-1.177-3.061-2.195-5.298-3.042c0.738-0.029,1.47-0.058,2.208-0.058
	c4.611,0,9.094,0.545,13.396,1.549l0,0c0,0,2.754,3.614,2.582,5.666c0,0.016,0,0.044,0,0.057c-0.172-0.014-0.344-0.042-0.516-0.057
	C87.222,23.235,84.21,23.135,81.469,23.279z M78.327,23.564c-3.227,0.474-5.901,1.449-7.803,3.228
	c-0.057-0.072-0.1-0.159-0.163-0.229c-1.462-1.879-13.375-2.711-18.64-2.969c3.25-2.438,7.473-4.275,12.809-5.68
	c8.261,1.062,13.56,5.551,13.56,5.551L78.327,23.564z M68.617,29.331c-0.76,1.477-1.211,3.27-1.319,5.465
	c-2.28-0.043-12.543,0.043-24.355,4.819c0.645-4.776,2.101-8.678,4.54-11.877c1.621,0.014,4.124-0.014,7.931-0.158
	C62.707,27.323,67.018,28.7,68.617,29.331z M69.199,44.219c-3.529,1.205-10.752,4.69-23.064,14.744
	c-2.295-4.188-3.6-8.534-3.6-12.808c0-0.359,0.006-0.732,0.013-1.076c9.883-4.045,18.03-6.626,24.938-6.512
	C67.77,40.519,68.359,42.412,69.199,44.219z M20.94,54.833c2.065-10.7,9.302-18.961,19.514-24.756
	c-2.524,4.017-4.188,8.435-4.827,13.067C30.615,45.969,25.574,49.77,20.94,54.833z M35.354,48.494
	c0.194,5.279,1.83,10.644,4.59,15.721c-5.967,5.221-10.363,11.417-13.605,17.743c-3.378-5.823-5.493-12.033-5.924-18.345
	C20.891,62.751,25.867,54.173,35.354,48.494z M20.546,97.088c-2.769-6.812-4.296-14.256-4.296-22.06
	c0-2.696,0.187-5.335,0.537-7.945c0.215,7.257,2.625,14.571,6.626,21.37C22.252,91.395,21.306,94.291,20.546,97.088z M27.911,95.039
	c4.727,6.064,10.693,11.529,17.428,15.963c-1.815,5.107-2.883,9.338-3.493,12.523c-6.283-4.303-11.69-9.797-15.893-16.152
	C25.695,103.084,26.483,98.967,27.911,95.039z M30.873,88.598c3.213-5.896,7.458-11.288,11.145-16.151
	c0.552-0.717,1.168-1.464,1.843-2.223c3.974,5.236,9.144,9.954,15.126,13.741c-0.496,0.773-0.999,1.578-1.507,2.396
	c-4.059,6.498-7.114,12.465-9.417,17.768C41.394,99.756,35.491,94.463,30.873,88.598z M75.215,122.131
	c-2.423,4.904-4.84,8.65-6.791,11.287c-7.115-0.787-13.842-2.869-19.959-5.965c0.918-2.482,2.589-6.699,4.777-11.904
	C60.183,118.977,67.649,121.314,75.215,122.131z M108.447,119.049c-1.547,3.141-3.285,5.551-4.762,7.271
	c-7.887,4.43-16.909,7.086-26.514,7.43c2.439-2.797,4.542-6.541,6.506-11.305C93.646,122.332,101.607,121.545,108.447,119.049z
	 M86.332,116.781c-0.159,0-0.329-0.014-0.504-0.014c1.709-4.963,3.372-10.787,5.15-17.514c0.531-2.037,0.99-4.131,1.362-6.211
	c7.962-0.156,14.601-0.945,19.98-2.551c0.286,3.557,0.401,7.186,0.301,10.828c-0.114,4.303-0.76,8.09-1.723,11.359
	C103.313,115.705,94.693,117.027,86.332,116.781z M121.716,110.656c-2.653,3.486-5.694,6.656-9.036,9.467
	c0.747-1.318,1.463-2.684,2.125-4.115C117.214,114.559,119.508,112.795,121.716,110.656z M110.729,51.937
	c3.743,3.125,8.749,8.017,13.225,14.831c0.745,1.147,1.405,2.295,1.993,3.442c-1.907,4.159-4.849,7.515-8.849,10.04
	c-3.042-11.99-8.189-20.31-10.716-23.867C108.335,55.306,109.769,53.857,110.729,51.937z M93.389,85.844
	c1.276-11.475,0.745-22.117,0.387-26.823c3.745-0.171,6.885-0.574,9.453-1.348c3.455,4.849,6.611,14.287,8.262,25.331
	C106.556,84.824,100.546,85.785,93.389,85.844z M87.881,27.079c8.403,0,17.526,7.832,17.526,14.945
	c0,7.128-4.504,8.936-12.895,9.281C84.854,51.634,75.136,44.564,75,37.393C74.864,30.277,79.488,27.079,87.881,27.079z
	 M89.773,58.908c-0.33,4.059-1.232,12.478-3.801,26.418c-5.656-0.832-11.266-2.695-16.48-5.248
	c5.443-11.332,10.613-21.917,11.546-23.825C83.751,57.644,86.705,58.562,89.773,58.908z M77.982,115.977
	c-7.516-1.217-14.945-3.727-21.852-7.184c1.673-3.83,3.509-7.932,5.472-12.121c1.307-2.781,2.749-5.838,4.239-8.965
	c5.801,2.699,12.128,4.52,18.695,5.121c-0.244,1.25-0.502,2.525-0.773,3.844C82.215,104.188,80.163,110.602,77.982,115.977z
	 M77.911,54.374c-2.215,3.342-6.732,10.242-14.371,22.349c-5.407-3.473-10.154-7.689-13.762-12.279
	c8.27-7.301,18.811-14.272,21.809-16.208C73.3,50.589,75.459,52.682,77.911,54.374z M119.321,94.105
	c-0.145-2.137-0.388-4.189-0.675-6.168c4.718-2.582,7.988-6.225,9.911-11.174c2.94,9.783,1.592,18.359,1.592,18.359l0.027,0.115
	c-0.645,1.721-1.349,3.43-2.136,5.078c-2.869,3.729-6.527,6.783-10.672,9.223C118.875,104.762,119.692,99.57,119.321,94.105z"/>
</svg>
